<svg width="55" height="55" viewBox="0 0 55 55" fill="none" xmlns="http://www.w3.org/2000/svg">
<path d="M27.4998 46.1998C17.1598 46.1998 8.7998 37.8398 8.7998 27.4998C8.7998 17.1598 17.1598 8.7998 27.4998 8.7998C37.8398 8.7998 46.1998 17.1598 46.1998 27.4998C46.1998 37.8398 37.8398 46.1998 27.4998 46.1998ZM27.4998 10.9998C18.3698 10.9998 10.9998 18.3698 10.9998 27.4998C10.9998 36.6298 18.3698 43.9998 27.4998 43.9998C36.6298 43.9998 43.9998 36.6298 43.9998 27.4998C43.9998 18.3698 36.6298 10.9998 27.4998 10.9998Z" fill="#3D8AFF"/>
<path d="M27.1699 38.1701L25.6299 36.6301L34.7599 27.5001L25.6299 18.3701L27.1699 16.8301L37.8399 27.5001L27.1699 38.1701Z" fill="#3D8AFF"/>
<path d="M17.6001 26.3999H36.3001V28.5999H17.6001V26.3999Z" fill="#3D8AFF"/>
</svg>
