<svg width="55" height="55" viewBox="0 0 55 55" fill="none" xmlns="http://www.w3.org/2000/svg">
<path d="M27.5002 46.1998C37.8402 46.1998 46.2002 37.8398 46.2002 27.4998C46.2002 17.1598 37.8402 8.7998 27.5002 8.7998C17.1602 8.7998 8.80019 17.1598 8.80019 27.4998C8.80019 37.8398 17.1602 46.1998 27.5002 46.1998ZM27.5002 10.9998C36.6302 10.9998 44.0002 18.3698 44.0002 27.4998C44.0002 36.6298 36.6302 43.9998 27.5002 43.9998C18.3702 43.9998 11.0002 36.6298 11.0002 27.4998C11.0002 18.3698 18.3702 10.9998 27.5002 10.9998Z" fill="#3D8AFF"/>
<path d="M27.8301 38.1701L29.3701 36.6301L20.2401 27.5001L29.3701 18.3701L27.8301 16.8301L17.1601 27.5001L27.8301 38.1701Z" fill="#3D8AFF"/>
<path d="M37.3999 26.3999H18.6999V28.5999H37.3999V26.3999Z" fill="#3D8AFF"/>
</svg>
