<svg width="26" height="26" viewBox="0 0 26 26" fill="none" xmlns="http://www.w3.org/2000/svg">
<path d="M21.7208 11.9165H4.27917C3.71077 11.9165 3.25 12.3773 3.25 12.9457V13.054C3.25 13.6224 3.71077 14.0832 4.27917 14.0832H21.7208C22.2892 14.0832 22.75 13.6224 22.75 13.054V12.9457C22.75 12.3773 22.2892 11.9165 21.7208 11.9165Z" fill="#313131"/>
<path d="M21.7208 17.3335H4.27917C3.71077 17.3335 3.25 17.7943 3.25 18.3627V18.471C3.25 19.0394 3.71077 19.5002 4.27917 19.5002H21.7208C22.2892 19.5002 22.75 19.0394 22.75 18.471V18.3627C22.75 17.7943 22.2892 17.3335 21.7208 17.3335Z" fill="#313131"/>
<path d="M21.7208 6.5H4.27917C3.71077 6.5 3.25 6.96077 3.25 7.52917V7.6375C3.25 8.20589 3.71077 8.66667 4.27917 8.66667H21.7208C22.2892 8.66667 22.75 8.20589 22.75 7.6375V7.52917C22.75 6.96077 22.2892 6.5 21.7208 6.5Z" fill="#313131"/>
</svg>
