<svg width="167" height="32" viewBox="0 0 167 32" fill="none" xmlns="http://www.w3.org/2000/svg">
<path d="M30.9082 0.571045H21.2769V10.5105H30.9082V0.571045Z" fill="#FF922E"/>
<path fill-rule="evenodd" clip-rule="evenodd" d="M0 6.85463L6.79062 0H15.7378V14.2031H30.9063V22.8752L23.8869 28.9517H0V6.85463ZM1.2502 7.38534L6.46639 2.2442L6.53107 22.8957H28.8918L23.456 27.7437H1.2502V7.38534Z" fill="#3D8AFF"/>
<path d="M46.9326 24.103V0.853H52.9896V19.0573H62.8772V24.103H46.9326Z" fill="#061428"/>
<path d="M65.8607 24.103V0.853H71.9177V19.0573H81.8053V24.103H65.8607Z" fill="#061428"/>
<path d="M95.0999 24.4658C92.5898 24.4658 90.4181 23.9711 88.5846 22.9817C86.7729 21.9924 85.3651 20.5963 84.3611 18.7934C83.3789 16.9906 82.8878 14.8799 82.8878 12.4615C82.8878 10.0431 83.3789 7.94342 84.3611 6.16257C85.3651 4.35974 86.7729 2.96364 88.5846 1.97428C90.4181 0.984916 92.5898 0.490234 95.0999 0.490234C96.6933 0.490234 98.1448 0.710092 99.4544 1.14981C100.764 1.56754 101.866 2.17215 102.761 2.96364L100.96 7.74555C99.9564 7.02002 99.0288 6.51435 98.1775 6.22853C97.3481 5.92073 96.3986 5.76683 95.3291 5.76683C93.3647 5.76683 91.8477 6.34945 90.7782 7.5147C89.7305 8.65796 89.2067 10.3069 89.2067 12.4615C89.2067 14.6381 89.7305 16.309 90.7782 17.4743C91.8477 18.6175 93.3647 19.1892 95.3291 19.1892C96.3986 19.1892 97.3481 19.0463 98.1775 18.7604C99.0288 18.4526 99.9564 17.936 100.96 17.2104L102.761 21.9924C101.866 22.7838 100.764 23.3995 99.4544 23.8392C98.1448 24.2569 96.6933 24.4658 95.0999 24.4658Z" fill="#061428"/>
<path d="M105.522 24.103V18.1009H111.579V24.103H105.522Z" fill="#061428"/>
<path d="M122.704 24.4658C120.849 24.4658 119.245 24.114 117.891 23.4104C116.538 22.7069 115.49 21.7065 114.748 20.4094C114.006 19.0902 113.635 17.5292 113.635 15.7264C113.635 13.9016 114.006 12.3406 114.748 11.0434C115.49 9.74626 116.538 8.74591 117.891 8.04236C119.245 7.33881 120.849 6.98704 122.704 6.98704C124.538 6.98704 126.131 7.33881 127.484 8.04236C128.838 8.74591 129.885 9.75726 130.627 11.0764C131.37 12.3736 131.741 13.9236 131.741 15.7264C131.741 17.5073 131.37 19.0573 130.627 20.3764C129.885 21.6956 128.838 22.7069 127.484 23.4104C126.131 24.114 124.538 24.4658 122.704 24.4658ZM122.704 20.1126C123.665 20.1126 124.429 19.7718 124.996 19.0902C125.564 18.3867 125.847 17.2654 125.847 15.7264C125.847 14.1874 125.564 13.0771 124.996 12.3956C124.429 11.692 123.665 11.3402 122.704 11.3402C121.722 11.3402 120.947 11.692 120.38 12.3956C119.812 13.0771 119.528 14.1874 119.528 15.7264C119.528 17.2654 119.812 18.3867 120.38 19.0902C120.947 19.7718 121.722 20.1126 122.704 20.1126Z" fill="#061428"/>
<path d="M134.595 24.103V11.9338C134.595 11.1643 134.573 10.3948 134.53 9.62534C134.486 8.85584 134.421 8.09732 134.333 7.34981H139.965L140.587 12.4945H139.703C139.921 11.2413 140.27 10.208 140.75 9.39449C141.231 8.58101 141.831 7.9764 142.551 7.58066C143.271 7.18491 144.123 6.98704 145.105 6.98704C145.563 6.98704 145.901 7.00903 146.12 7.053C146.36 7.07499 146.611 7.14094 146.873 7.25087V12.3956C146.327 12.1537 145.891 11.9998 145.563 11.9338C145.236 11.8679 144.81 11.8349 144.286 11.8349C143.391 11.8349 142.66 11.9998 142.093 12.3296C141.525 12.6374 141.11 13.1211 140.849 13.7807C140.608 14.4402 140.488 15.2867 140.488 16.32V24.103H134.595Z" fill="#061428"/>
<path d="M156.496 31.4902C154.837 31.4902 153.375 31.3363 152.109 31.0285C150.865 30.7427 149.74 30.292 148.736 29.6764L149.751 25.5211C150.341 25.8729 150.985 26.1697 151.683 26.4115C152.382 26.6534 153.102 26.8292 153.844 26.9392C154.608 27.0711 155.328 27.137 156.005 27.137C157.402 27.137 158.439 26.8073 159.115 26.1477C159.792 25.5101 160.13 24.5977 160.13 23.4104V20.4753H160.458C160.108 21.4427 159.421 22.2232 158.395 22.8168C157.369 23.3885 156.234 23.6743 154.99 23.6743C153.506 23.6743 152.207 23.3445 151.094 22.6849C150.002 22.0034 149.14 21.036 148.507 19.7828C147.896 18.5296 147.591 17.0456 147.591 15.3307C147.591 13.6158 147.896 12.1317 148.507 10.8785C149.14 9.62534 150.002 8.66896 151.094 8.00938C152.207 7.32782 153.506 6.98704 154.99 6.98704C156.278 6.98704 157.413 7.27286 158.395 7.84449C159.377 8.41612 160.043 9.17463 160.392 10.12L160.13 10.0541L160.49 7.34981H166.089C166.002 8.09732 165.936 8.85584 165.892 9.62534C165.849 10.3948 165.827 11.1534 165.827 11.9009V22.7509C165.827 25.5651 165.03 27.7197 163.437 29.2147C161.844 30.7317 159.53 31.4902 156.496 31.4902ZM156.791 19.3211C157.795 19.3211 158.591 18.9803 159.181 18.2987C159.77 17.6172 160.065 16.6278 160.065 15.3307C160.065 14.0115 159.77 13.0221 159.181 12.3626C158.591 11.681 157.795 11.3402 156.791 11.3402C155.765 11.3402 154.957 11.681 154.368 12.3626C153.778 13.0221 153.484 14.0115 153.484 15.3307C153.484 16.6278 153.778 17.6172 154.368 18.2987C154.957 18.9803 155.765 19.3211 156.791 19.3211Z" fill="#061428"/>
</svg>
