<svg width="357" height="85" viewBox="0 0 357 85" fill="none" xmlns="http://www.w3.org/2000/svg">
<g clip-path="url(#clip0_76_22042)">
<path d="M34.2607 21.6176C36.758 24.1149 38.0848 27.7829 38.0848 32.5435V52.8346H34.7289V32.8557C34.7289 28.9536 33.7144 25.988 31.7633 23.9589C29.8123 21.9298 27.0027 20.9152 23.4908 20.9152C19.4326 20.9152 16.2329 22.1639 13.8135 24.5832C11.4723 27.0025 10.3016 30.2803 10.3016 34.4166V52.9126H7.02384V18.1057H10.2236V25.5978C11.3942 23.1784 13.1892 21.2274 15.6085 19.9007C17.9498 18.4959 20.7593 17.8715 24.0371 17.8715C28.3294 17.8715 31.7633 19.1202 34.2607 21.6176ZM54.2396 50.8835C51.5861 49.4007 49.557 47.2936 47.9962 44.5621C46.5134 41.9086 45.7329 38.865 45.7329 35.5092C45.7329 32.1533 46.5134 29.1097 47.9962 26.4562C49.479 23.8028 51.5861 21.6956 54.2396 20.1348C56.893 18.652 59.8586 17.8715 63.1364 17.8715C66.4142 17.8715 69.3798 18.652 72.0333 20.1348C74.6867 21.6176 76.7158 23.7247 78.2767 26.4562C79.7595 29.1097 80.5399 32.1533 80.5399 35.5092C80.5399 38.865 79.7595 41.9086 78.2767 44.5621C76.7939 47.2155 74.6867 49.3227 72.0333 50.8835C69.3018 52.3663 66.3362 53.0687 63.0584 53.0687C59.7806 53.0687 56.815 52.3663 54.2396 50.8835ZM70.2383 48.2301C72.3454 46.9814 73.9843 45.2645 75.233 43.0793C76.4817 40.8941 77.028 38.3187 77.028 35.5092C77.028 32.6996 76.4036 30.1242 75.233 27.939C73.9843 25.7538 72.3454 23.9589 70.2383 22.7882C68.1311 21.5395 65.7118 20.9152 63.0584 20.9152C60.4049 20.9152 57.9856 21.5395 55.8785 22.7882C53.7713 24.0369 52.1324 25.7538 50.8837 27.939C49.6351 30.1242 49.0888 32.6996 49.0888 35.5092C49.0888 38.3187 49.7131 40.8941 50.8837 43.0793C52.1324 45.2645 53.7713 47.0595 55.8785 48.2301C57.9856 49.4788 60.4049 50.1031 63.0584 50.1031C65.7118 50.1031 68.1311 49.4788 70.2383 48.2301ZM98.9579 19.9007C101.221 18.5739 103.953 17.8715 107.23 17.8715V21.1493L106.45 21.0713C102.626 21.0713 99.5823 22.2419 97.3971 24.6612C95.2119 27.0806 94.1193 30.4364 94.1193 34.7287V52.8346H90.7635V18.1057H93.9632V25.6758C94.9778 23.1784 96.6947 21.2274 98.9579 19.9007ZM137.823 50.6494C136.965 51.4298 135.95 52.0542 134.701 52.4444C133.453 52.8346 132.126 53.0687 130.721 53.0687C127.678 53.0687 125.414 52.2103 123.775 50.5714C122.137 48.9325 121.278 46.5912 121.278 43.6256V20.9932H114.879V18.1057H121.278V10.5355H124.634V18.1057H135.638V20.9932H124.634V43.3134C124.634 45.5766 125.18 47.2936 126.273 48.4642C127.365 49.6349 129.004 50.2592 131.111 50.2592C133.297 50.2592 135.092 49.6349 136.496 48.3081L137.823 50.6494ZM174.347 21.6176C176.844 24.1149 178.171 27.7829 178.171 32.5435V52.8346H174.815V32.8557C174.815 28.9536 173.801 25.988 171.85 23.9589C169.899 21.9298 167.089 20.9152 163.577 20.9152C159.519 20.9152 156.319 22.1639 153.9 24.5832C151.559 27.0025 150.388 30.2803 150.388 34.4166V52.9126H147.032V3.51172H150.388V25.3636C151.559 22.9443 153.354 21.1493 155.695 19.8226C158.036 18.4959 160.846 17.8715 164.045 17.8715C168.416 17.8715 171.85 19.1202 174.347 21.6176ZM245.054 17.0911L232.099 52.9126H222.109L214.071 30.6705L205.72 52.9126H195.731L182.854 17.0911H192.609L201.038 41.2843L209.778 17.0911H218.597L227.104 41.2843L235.845 17.0911H245.054ZM283.763 37.8504H256.682C257.15 40.0356 258.321 41.8306 260.116 43.0793C261.911 44.328 264.174 45.0303 266.905 45.0303C268.779 45.0303 270.417 44.7182 271.822 44.1719C273.227 43.6256 274.632 42.7671 275.88 41.5184L281.421 47.5277C278.066 51.3518 273.149 53.3029 266.671 53.3029C262.613 53.3029 259.101 52.5224 255.98 50.9616C252.858 49.4007 250.517 47.2155 248.8 44.406C247.083 41.5965 246.302 38.4748 246.302 34.8848C246.302 31.3729 247.161 28.2512 248.8 25.4417C250.439 22.6321 252.78 20.4469 255.667 18.8861C258.555 17.3252 261.833 16.5448 265.423 16.5448C268.935 16.5448 272.134 17.3252 274.944 18.8081C277.753 20.2909 280.017 22.4761 281.656 25.2856C283.294 28.0951 284.075 31.3729 284.075 35.1189C283.997 35.197 283.919 36.1335 283.763 37.8504ZM259.491 26.3782C257.931 27.7049 256.916 29.4999 256.526 31.8412H274.163C273.773 29.5779 272.837 27.7829 271.198 26.4562C269.637 25.1295 267.686 24.4271 265.345 24.4271C263.081 24.3491 261.13 25.0515 259.491 26.3782ZM294.22 52.2883C291.411 51.5859 289.148 50.6494 287.431 49.5568L290.865 42.1428C292.425 43.1573 294.376 44.0158 296.64 44.6401C298.903 45.2645 301.088 45.5766 303.273 45.5766C307.644 45.5766 309.829 44.484 309.829 42.2989C309.829 41.2843 309.205 40.5819 308.034 40.1137C306.863 39.6454 304.99 39.2552 302.493 39.0211C299.527 38.5528 297.186 38.0846 295.235 37.4602C293.362 36.9139 291.645 35.8994 290.24 34.4166C288.835 32.9338 288.133 30.9046 288.133 28.1732C288.133 25.9099 288.757 23.8808 290.084 22.1639C291.411 20.4469 293.284 19.0422 295.781 18.1057C298.279 17.1692 301.244 16.6229 304.678 16.6229C307.175 16.6229 309.751 16.935 312.248 17.4813C314.746 18.0276 316.853 18.8081 318.492 19.7446L315.058 27.1586C311.936 25.3636 308.502 24.5052 304.756 24.5052C302.571 24.5052 300.854 24.8173 299.761 25.4417C298.669 26.066 298.122 26.8464 298.122 27.861C298.122 28.9536 298.747 29.734 299.917 30.2023C301.088 30.6705 303.039 31.0607 305.615 31.4509C308.58 31.9192 310.921 32.4655 312.794 33.0118C314.668 33.5581 316.306 34.5726 317.633 36.0555C319.038 37.5383 319.662 39.5674 319.662 42.1428C319.662 44.328 318.96 46.3571 317.633 48.074C316.306 49.7909 314.355 51.1177 311.78 52.1322C309.205 53.0687 306.239 53.537 302.727 53.537C299.996 53.3809 297.03 52.9907 294.22 52.2883ZM351.972 51.1177C350.957 51.8981 349.709 52.4444 348.226 52.8346C346.743 53.2248 345.182 53.3809 343.543 53.3809C339.251 53.3809 335.973 52.2883 333.632 50.1031C331.291 47.9179 330.12 44.7182 330.12 40.5039V25.8319H324.657V17.8715H330.198V9.13078H340.578V17.8715H349.474V25.8319H340.578V40.4258C340.578 41.9086 340.968 43.0793 341.748 43.9377C342.529 44.7962 343.621 45.1864 345.026 45.1864C346.665 45.1864 348.07 44.7182 349.24 43.8597L351.972 51.1177ZM11.7064 75.545H9.83337V78.7447H6.47754V66.7262H11.9405C13.0331 66.7262 13.9696 66.8823 14.75 67.2725C15.5305 67.6627 16.1548 68.1309 16.6231 68.8333C17.0913 69.5357 17.2474 70.3161 17.2474 71.1746C17.2474 72.0331 17.0133 72.8135 16.6231 73.4378C16.2329 74.0622 15.6085 74.6085 14.9061 74.9206L17.4815 78.6667H13.8135L11.7064 75.545ZM13.3453 69.8479C12.9551 69.5357 12.4868 69.3796 11.7844 69.3796H9.91141V72.8915H11.7844C12.4868 72.8915 13.0331 72.7354 13.3453 72.4233C13.6575 72.1111 13.8916 71.7209 13.8916 71.0965C13.8916 70.4722 13.7355 70.16 13.3453 69.8479ZM32.2316 76.0913V78.7447H22.6323V66.7262H32.0755V69.3796H25.9882V71.4087H31.2951V73.9841H25.9882V76.1693H32.2316V76.0913ZM45.6549 72.5013H48.6205V77.496C47.9181 77.9643 47.1377 78.3545 46.2792 78.6667C45.4208 78.9008 44.4843 79.0569 43.6258 79.0569C42.3771 79.0569 41.2065 78.8228 40.1919 78.2765C39.1774 77.7302 38.3969 77.0278 37.8506 76.0913C37.3043 75.1548 36.9922 74.0622 36.9922 72.8915C36.9922 71.7209 37.3043 70.6283 37.8506 69.6918C38.3969 68.7553 39.2554 67.9748 40.27 67.5066C41.2845 66.9603 42.4552 66.7262 43.7038 66.7262C44.7964 66.7262 45.811 66.8823 46.7475 67.2725C47.606 67.6627 48.3864 68.209 49.0107 68.9114L46.8255 70.8624C46.0451 70.004 45.0306 69.5357 43.938 69.5357C42.9234 69.5357 42.0649 69.8479 41.4406 70.4722C40.8163 71.0965 40.5041 71.955 40.5041 72.9696C40.5041 73.672 40.6602 74.2183 40.8943 74.7645C41.2065 75.3109 41.5967 75.7011 42.0649 76.0132C42.5332 76.3254 43.1575 76.4815 43.8599 76.4815C44.4843 76.4815 45.1086 76.3254 45.7329 76.0913V72.5013H45.6549ZM54.2396 66.7262H57.6734V78.7447H54.2396V66.7262ZM64.8534 78.6667C63.9168 78.4325 63.2145 78.1204 62.5901 77.7302L63.6827 75.2328C64.229 75.623 64.8534 75.8571 65.5557 76.0913C66.2581 76.3254 66.9605 76.4034 67.6629 76.4034C68.9896 76.4034 69.6139 76.0913 69.6139 75.3889C69.6139 75.0767 69.4579 74.7645 69.0676 74.6085C68.6774 74.4524 68.1311 74.2963 67.2727 74.0622C66.3362 73.9061 65.6338 73.672 65.0094 73.4378C64.3851 73.2037 63.9168 72.8915 63.4486 72.3452C62.9803 71.877 62.8242 71.1746 62.8242 70.3161C62.8242 69.6137 63.0584 68.9114 63.4486 68.3651C63.8388 67.7407 64.4631 67.2725 65.2436 66.9603C66.024 66.6481 67.0385 66.414 68.2092 66.414C68.9896 66.414 69.77 66.492 70.5505 66.6481C71.3309 66.8042 71.9552 67.1164 72.5796 67.4286L71.565 69.9259C70.3944 69.3016 69.3018 68.9894 68.2092 68.9894C67.5068 68.9894 67.0385 69.0674 66.7264 69.3016C66.4142 69.5357 66.2581 69.7698 66.2581 70.082C66.2581 70.3942 66.4142 70.6283 66.8044 70.7844C67.1946 70.9405 67.7409 71.0965 68.5994 71.2526C69.5359 71.4087 70.2383 71.6428 70.8626 71.877C71.487 72.1111 71.9552 72.4233 72.4235 72.9696C72.8917 73.4378 73.0478 74.1402 73.0478 74.9206C73.0478 75.623 72.8137 76.3254 72.4235 76.8717C72.0333 77.418 71.4089 77.8863 70.6285 78.2765C69.8481 78.5886 68.8335 78.8228 67.7409 78.8228C66.7264 78.9788 65.7899 78.9008 64.8534 78.6667ZM80.3838 69.4577H76.7158V66.7262H87.4857V69.4577H83.8177V78.7447H80.3838V69.4577ZM101.846 76.0913V78.7447H92.1682V66.7262H101.611V69.3796H95.5241V71.4087H100.831V73.9841H95.5241V76.1693H101.846V76.0913ZM112.381 75.545H110.508V78.7447H107.074V66.7262H112.537C113.63 66.7262 114.566 66.8823 115.347 67.2725C116.127 67.6627 116.752 68.1309 117.22 68.8333C117.688 69.5357 117.844 70.3161 117.844 71.1746C117.844 72.0331 117.61 72.8135 117.22 73.4378C116.83 74.0622 116.205 74.6085 115.503 74.9206L118.078 78.6667H114.41L112.381 75.545ZM114.02 69.8479C113.63 69.5357 113.162 69.3796 112.459 69.3796H110.586V72.8915H112.459C113.162 72.8915 113.708 72.7354 114.02 72.4233C114.332 72.1111 114.566 71.7209 114.566 71.0965C114.566 70.4722 114.41 70.16 114.02 69.8479ZM132.984 76.0913V78.7447H123.307V66.7262H132.75V69.3796H126.663V71.4087H131.97V73.9841H126.663V76.1693H132.984V76.0913ZM138.291 66.7262H143.988C145.315 66.7262 146.486 66.9603 147.5 67.4286C148.515 67.8968 149.295 68.5992 149.842 69.5357C150.388 70.4722 150.7 71.4868 150.7 72.7354C150.7 73.9841 150.388 74.9987 149.842 75.9352C149.295 76.8717 148.515 77.5741 147.5 78.0423C146.486 78.5106 145.315 78.7447 143.988 78.7447H138.291V66.7262ZM143.832 76.0132C144.847 76.0132 145.705 75.7011 146.33 75.1548C146.954 74.6085 147.266 73.75 147.266 72.7354C147.266 71.7209 146.954 70.8624 146.33 70.3161C145.705 69.7698 144.847 69.4577 143.832 69.4577H141.647V76.0132H143.832ZM172.396 76.4034H167.323L166.387 78.7447H162.953L168.26 66.7262H171.616L176.922 78.7447H173.411L172.396 76.4034ZM171.381 73.9061L169.821 70.082L168.26 73.9061H171.381ZM189.097 72.5013H192.063V77.496C191.36 77.9643 190.58 78.3545 189.721 78.6667C188.863 78.9008 187.926 79.0569 187.068 79.0569C185.819 79.0569 184.649 78.8228 183.634 78.2765C182.62 77.7302 181.839 77.0278 181.293 76.0913C180.747 75.1548 180.434 74.0622 180.434 72.8915C180.434 71.7209 180.747 70.6283 181.293 69.6918C181.839 68.7553 182.698 67.9748 183.712 67.5066C184.727 66.9603 185.897 66.7262 187.146 66.7262C188.239 66.7262 189.253 66.8823 190.19 67.2725C191.048 67.6627 191.829 68.209 192.453 68.9114L190.268 70.8624C189.487 70.004 188.473 69.5357 187.38 69.5357C186.366 69.5357 185.507 69.8479 184.883 70.4722C184.258 71.0965 183.946 71.955 183.946 72.9696C183.946 73.672 184.102 74.2183 184.336 74.7645C184.649 75.3109 185.039 75.7011 185.507 76.0132C185.975 76.3254 186.6 76.4815 187.302 76.4815C187.926 76.4815 188.551 76.3254 189.175 76.0913V72.5013H189.097ZM207.359 76.0913V78.7447H197.682V66.7262H207.125V69.3796H201.038V71.4087H206.344V73.9841H201.038V76.1693H207.359V76.0913ZM224.138 66.7262V78.7447H221.329L216.022 72.3452V78.7447H212.666V66.7262H215.475L220.782 73.1257V66.7262H224.138ZM232.567 69.4577H228.899V66.7262H239.591V69.4577H235.923V78.7447H232.567V69.4577Z" fill="#003952"/>
</g>
<defs>
<clipPath id="clip0_76_22042">
<rect width="356.654" height="84.6761" fill="white"/>
</clipPath>
</defs>
</svg>
