<svg width="45" height="45" viewBox="0 0 45 45" fill="none" xmlns="http://www.w3.org/2000/svg">
<path d="M22.5 37.8C14.04 37.8 7.19995 30.96 7.19995 22.5C7.19995 14.04 14.04 7.19995 22.5 7.19995C30.96 7.19995 37.8 14.04 37.8 22.5C37.8 30.96 30.96 37.8 22.5 37.8ZM22.5 8.99995C15.03 8.99995 8.99995 15.03 8.99995 22.5C8.99995 29.97 15.03 36 22.5 36C29.97 36 36 29.97 36 22.5C36 15.03 29.97 8.99995 22.5 8.99995Z" fill="#313D6C"/>
<path d="M22.23 31.23L20.97 29.97L28.44 22.5L20.97 15.03L22.23 13.77L30.96 22.5L22.23 31.23Z" fill="#313D6C"/>
<path d="M14.3999 21.6H29.6999V23.4H14.3999V21.6Z" fill="#313D6C"/>
</svg>
