<svg width="19" height="18" viewBox="0 0 19 18" fill="none" xmlns="http://www.w3.org/2000/svg">
<path d="M6.63725 5.54266L9.0941 0.350391C9.14128 0.245938 9.21501 0.157716 9.3069 0.0957691C9.39878 0.0338223 9.50512 0.000639921 9.61382 0C9.81968 0 10.0255 0.116397 10.1369 0.350391L12.5938 5.54266L18.1037 6.37784C18.241 6.40087 18.3667 6.47373 18.4595 6.58412C18.5524 6.69452 18.6067 6.83569 18.6133 6.98382C18.6211 7.08244 18.608 7.18168 18.5749 7.27414C18.5418 7.3666 18.4895 7.44989 18.422 7.51781L14.4589 11.5449L15.3926 17.2208C15.4803 17.7523 14.9876 18.1687 14.5534 17.9311L9.61382 15.224L4.67649 17.9311C4.62485 17.9597 4.56949 17.98 4.51225 17.9911C4.12753 18.0631 3.7608 17.6863 3.83729 17.2208L4.77099 11.5449L0.808979 7.51781C0.747384 7.45565 0.698425 7.38064 0.66514 7.29746C0.631855 7.21427 0.614956 7.12467 0.615491 7.03422C0.615549 6.90635 0.648633 6.78096 0.71111 6.67183C0.755431 6.59272 0.81584 6.52523 0.887879 6.47434C0.959919 6.42346 1.04175 6.39048 1.12733 6.37784L6.63725 5.54266ZM9.61382 13.832C9.70462 13.8316 9.79417 13.8547 9.8748 13.8992L14.0213 16.172L13.2406 11.4237C13.2222 11.3145 13.2291 11.2021 13.2609 11.0965C13.2927 10.9908 13.3483 10.8951 13.4228 10.8177L16.693 7.49381L12.1348 6.80263C12.0404 6.78742 11.9509 6.74804 11.8739 6.68785C11.7969 6.62766 11.7347 6.54846 11.6927 6.45704L9.61494 2.06755L9.61382 2.07115V13.8308V13.832Z" fill="#FF922E"/>
</svg>
